<svg width="30" height="30" viewBox="0 0 30 30" fill="none" xmlns="http://www.w3.org/2000/svg">
<g clip-path="url(#clip0_45_1)">
<path d="M17.3437 0C12.7237 0 8.96509 3.75859 8.96509 8.3786C8.96509 12.9986 12.7237 16.7572 17.3437 16.7572C21.9637 16.7572 25.7223 12.9986 25.7223 8.3786C25.7223 3.75859 21.9636 0 17.3437 0ZM18.2237 12.1877V12.3716C18.2237 12.857 17.8302 13.2505 17.3448 13.2505C16.8594 13.2505 16.4659 12.857 16.4659 12.3716V12.2871C16.0607 12.2161 15.6907 12.0646 15.2235 11.7588C14.8173 11.493 14.7036 10.9482 14.9694 10.5421C15.2353 10.1359 15.7799 10.0223 16.1861 10.288C16.6139 10.568 16.7529 10.5895 17.3389 10.5857C17.9042 10.582 18.1295 10.1385 18.1735 9.87696C18.2131 9.642 18.1688 9.3296 17.7331 9.17544C17.0642 8.93873 16.2764 8.63821 15.725 8.20592C14.5147 7.25698 14.8862 5.096 16.466 4.52145V4.39437C16.466 3.909 16.8595 3.51549 17.3449 3.51549C17.8302 3.51549 18.2237 3.909 18.2237 4.39437V4.46667C18.806 4.63828 19.2132 5.00079 19.2132 5.00079C19.5679 5.32914 19.5912 5.88259 19.2643 6.23936C18.937 6.59653 18.3827 6.62132 18.0248 6.29537C17.798 6.12745 17.4524 6.05497 17.0883 6.1653C16.8526 6.23637 16.7896 6.47929 16.7759 6.55206C16.7475 6.70364 16.788 6.8057 16.8097 6.8227C17.1674 7.10329 17.8816 7.36344 18.3195 7.51841C20.6354 8.3377 20.3529 11.4181 18.2237 12.1877Z" fill="currentColor"/>
<path d="M25.4041 17.1175L16.8702 19.6311C17.1403 20.292 17.2851 21.0115 17.2851 21.7562V22.065C17.2851 24.2546 15.023 25.7112 13.0313 24.8153L8.55785 22.8021C8.11548 22.6029 7.91803 22.0826 8.11724 21.6402C8.31645 21.1972 8.83674 20.9998 9.27911 21.199L13.7526 23.2122C14.5794 23.5847 15.5273 22.986 15.5273 22.065V21.7562C15.5273 20.246 14.6126 18.9119 13.26 18.3032L9.39454 16.5638C7.8899 15.8865 6.16731 15.8947 4.67381 16.5843L0.515569 18.4768C0.202104 18.6192 0.000549316 18.9321 0.000549316 19.2766V28.6289C0.000549316 29.2898 0.631522 29.6856 1.1923 29.4727L7.04443 27.2433L14.0051 29.6795C15.5876 30.2333 17.326 30.0655 18.7756 29.2061L28.2446 23.63C29.3268 22.9884 29.9994 21.8084 29.9994 20.5498C29.9994 18.1682 27.7111 16.4376 25.4041 17.1175Z" fill="currentColor"/>
</g>
<defs>
<clipPath id="clip0_45_1">
<rect width="30" height="30" fill="white"/>
</clipPath>
</defs>
</svg>
