<svg width="30" height="30" viewBox="0 0 30 30" fill="none" xmlns="http://www.w3.org/2000/svg">
<g clip-path="url(#clip0_39_27)">
<path d="M28.6122 14.0435C28.6228 14.5334 28.2303 14.9418 27.7327 14.9418C27.2563 14.9418 26.8649 14.5609 26.8543 14.0822C26.8256 12.7556 26.47 10.938 24.9377 9.81351C22.4778 8.00755 18.1759 8.82718 15.2449 9.67816C15.0843 9.72421 14.9158 9.72427 14.755 9.67816C11.8251 8.82753 7.52246 8.00732 5.06223 9.81351C3.52997 10.938 3.17429 12.7556 3.14558 14.0822C3.13767 14.4433 2.91366 14.7468 2.60358 14.875C2.00931 15.1181 1.37408 14.6725 1.38773 14.0435C1.45095 11.1598 2.74485 8.68602 5.49466 7.58924C6.48937 7.2021 7.73059 6.94979 9.38479 6.98278C9.37893 6.97692 9.43161 7.04454 7.39607 4.3208C5.96957 2.60543 7.18876 0 9.42464 0C9.66956 0 9.90336 0.101956 10.0698 0.281843C10.0774 0.290046 11.0249 1.27796 12.6415 1.78305C13.3939 0.559583 14.6589 0.124808 14.7222 0.103713C14.9021 0.0433604 15.0978 0.0433604 15.2777 0.103713C15.341 0.124808 16.6061 0.559583 17.3584 1.78305C18.9751 1.27796 19.9225 0.290046 19.9331 0.278913C20.0995 0.0990258 20.3304 0 20.5753 0C22.8152 0 24.0278 2.60854 22.6039 4.3208C21.4092 5.91934 22.2867 4.74509 20.6163 6.98161C20.6037 6.99421 22.3537 6.87924 24.0541 7.4281C27.0523 8.39305 28.5442 10.9409 28.6122 14.0435Z" fill="currentColor"/>
<path d="M26.0434 16.5572C26.0306 16.539 26.1895 16.758 21.6611 10.5225C20.2431 10.4054 18.6747 10.6426 17.2998 10.9579C17.461 11.1671 17.6496 11.3604 17.8711 11.5262C18.2596 11.8175 18.3381 12.3683 18.0469 12.7567C17.7544 13.1464 17.2043 13.2227 16.8164 12.9325C16.2439 12.503 15.8186 11.9727 15.5033 11.4219C15.17 11.4867 14.8305 11.4868 14.4966 11.4219C14.1814 11.9727 13.756 12.503 13.1835 12.9325C12.7963 13.2222 12.2459 13.147 11.953 12.7567C11.6618 12.3683 11.7403 11.8175 12.1288 11.5262C12.3503 11.3604 12.539 11.1671 12.6995 10.9579C11.3095 10.6392 9.74815 10.4062 8.33888 10.5225C3.81487 16.7519 3.96927 16.5391 3.95655 16.5572C1.1751 20.6031 2.70742 26.1813 7.14999 28.2165C12.2157 30.5374 17.5362 30.651 22.85 28.2165C27.2953 26.18 28.8228 20.6001 26.0434 16.5572ZM15.8801 23.7317V23.9068C15.8801 24.4165 15.4745 24.7945 15.0011 24.7945C14.5157 24.7945 14.1222 24.401 14.1222 23.9156V23.8311C13.717 23.7601 13.3469 23.6086 12.8797 23.3028C12.4633 23.0302 12.3654 22.475 12.6255 22.0775C12.8913 21.6712 13.436 21.5574 13.8423 21.8231C14.2706 22.1034 14.408 22.1254 14.9953 22.1212C15.5606 22.1174 15.786 21.6736 15.8299 21.412C15.8827 21.0984 15.7482 20.8463 15.3895 20.7194C14.7205 20.4826 13.9327 20.1821 13.3813 19.7498C12.1729 18.8024 12.5381 16.6321 14.1223 16.0564V15.9379C14.1223 15.4282 14.5278 15.0502 15.0012 15.0502C15.4866 15.0502 15.8801 15.4437 15.8801 15.9291V16.0032C16.3284 16.1336 16.6738 16.3532 16.8709 16.535C16.8644 16.542 16.8638 16.5392 16.8697 16.5444C17.2244 16.8728 17.2477 17.4263 16.9208 17.783C16.5935 18.1402 16.0391 18.165 15.6811 17.8391C15.4544 17.6711 15.1087 17.5986 14.7447 17.709C14.5367 17.7717 14.4239 17.9943 14.4227 18.1939C14.4238 18.2856 14.4501 18.3452 14.4662 18.3579C14.7978 18.6179 15.4152 18.8554 15.9754 19.0535C18.2781 19.8674 18.0228 22.9572 15.8801 23.7317Z" fill="currentColor"/>
</g>
<defs>
<clipPath id="clip0_39_27">
<rect width="30" height="30" fill="white"/>
</clipPath>
</defs>
</svg>
