<svg width="30" height="30" viewBox="0 0 30 30" fill="none" xmlns="http://www.w3.org/2000/svg">
<path d="M29.7656 16.3999H19.9219C19.7923 16.3999 19.6875 16.5049 19.6875 16.6343V20.3843C19.6875 20.5137 19.7923 20.6187 19.9219 20.6187H29.7656C29.8952 20.6187 30 20.5137 30 20.3843V16.6343C30 16.5049 29.8952 16.3999 29.7656 16.3999ZM21.7999 19.4381C21.2822 19.4381 20.8624 19.0181 20.8624 18.5006C20.8624 17.9829 21.2822 17.5631 21.7999 17.5631C22.3177 17.5631 22.7374 17.9829 22.7374 18.5006C22.7374 19.0181 22.3177 19.4381 21.7999 19.4381Z" fill="currentColor"/>
<path d="M26.0156 22.0249V26.4696C26.0156 27.1158 25.5045 27.6499 24.8583 27.6499H1.18641C1.18477 27.6499 1.18172 27.6499 1.18055 27.6499C0.755391 27.6499 0.46875 27.5344 0 27.3506V27.8756C0 29.0388 0.949453 29.9937 2.11242 29.9937H26.7218C27.8848 29.9937 28.8281 29.0388 28.8281 27.8756V22.0249H26.0156V22.0249Z" fill="currentColor"/>
<path d="M26.9531 6.88193V5.3756C26.9531 4.33146 26.3302 3.43287 25.4351 3.02857L24.8541 0.545371C24.8114 0.363964 24.6989 0.206699 24.5405 0.108261C24.3818 0.00982378 24.1908 -0.0164262 24.0089 0.0255269L12.1976 2.80615H2.58187C1.16016 2.80615 0 3.95389 0 5.3756V8.31349C0 8.34912 0.0128906 8.38943 0.0128906 8.4267C0.0128906 9.07287 0.540469 9.60302 1.18641 9.60302C1.18734 9.60302 1.18781 9.60302 1.18875 9.60302H24.8583C25.5045 9.60302 26.0156 10.1203 26.0156 10.7665V14.9936H28.8281V9.35998C28.8281 8.18248 28.125 7.18873 26.9531 6.88193ZM2.58187 4.2124H6.21445L1.41445 5.34045C1.43789 4.71514 1.95047 4.2124 2.58187 4.2124ZM2.58187 6.79053C2.37867 6.79053 2.19 6.72935 2.02312 6.63795L23.6463 1.55787L24.8712 6.79053H2.58187Z" fill="currentColor"/>
<path d="M19.9249 14.9936H24.6094V11.0093H1.18641C1.18477 11.0093 1.18172 11.0093 1.18055 11.0093C0.755391 11.0093 0.46875 10.8937 0 10.71V24.9473C0 24.9853 0.0133594 25.0279 0.0133594 25.0675C0.0133594 25.7135 0.540469 26.2436 1.18641 26.2436C1.18734 26.2436 1.18781 26.2436 1.18875 26.2436H24.6094V22.0249H19.9249C19.02 22.0249 18.2812 21.28 18.2812 20.3756V16.6256C18.2812 15.7211 19.02 14.9936 19.9249 14.9936Z" fill="currentColor"/>
</svg>
