<svg width="32" height="32" viewBox="0 0 32 32" fill="none" xmlns="http://www.w3.org/2000/svg">
<path d="M13.987 2.66666C13.3483 2.66666 12.8023 3.11811 12.6797 3.74478L12.2344 6.03124C11.14 6.44506 10.1281 7.0232 9.23957 7.75259L7.04686 6.99739C6.44286 6.78939 5.77832 7.03914 5.45832 7.59114L3.4479 11.0755C3.12924 11.6288 3.24522 12.3313 3.72655 12.75L5.48436 14.2786C5.39294 14.8404 5.33332 15.4124 5.33332 16C5.33332 16.5876 5.39294 17.1595 5.48436 17.7213L3.72655 19.25C3.24522 19.6687 3.12924 20.3711 3.4479 20.9245L5.45832 24.4088C5.77699 24.9622 6.44286 25.2119 7.04686 25.0052L9.23957 24.25C10.1278 24.9789 11.1405 25.5551 12.2344 25.9687L12.6797 28.2552C12.8023 28.8819 13.3483 29.3333 13.987 29.3333H18.013C18.6517 29.3333 19.1976 28.8819 19.3203 28.2552L19.7656 25.9687C20.86 25.5549 21.8718 24.9768 22.7604 24.2474L24.9531 25.0026C25.5571 25.2106 26.2217 24.9622 26.5417 24.4088L28.5521 20.9219C28.8707 20.3685 28.7548 19.6687 28.2734 19.25L26.5156 17.7213C26.607 17.1595 26.6667 16.5876 26.6667 16C26.6667 15.4124 26.607 14.8404 26.5156 14.2786L28.2734 12.75C28.7548 12.3313 28.8707 11.6288 28.5521 11.0755L26.5417 7.59114C26.223 7.0378 25.5571 6.78811 24.9531 6.99478L22.7604 7.74999C21.8721 7.02105 20.8595 6.44487 19.7656 6.03124L19.3203 3.74478C19.1976 3.11811 18.6517 2.66666 18.013 2.66666H13.987ZM16 10.6667C18.9453 10.6667 21.3333 13.0547 21.3333 16C21.3333 18.9453 18.9453 21.3333 16 21.3333C13.0547 21.3333 10.6667 18.9453 10.6667 16C10.6667 13.0547 13.0547 10.6667 16 10.6667Z" fill="currentColor"/>
</svg>
