<svg width="576" height="518" viewBox="0 0 576 518" fill="none" xmlns="http://www.w3.org/2000/svg">
<path d="M2.5999 465.544C250.327 472.719 336.153 -26.5012 583.6 65.0441" stroke="#EEEEEE" stroke-opacity="0.2" stroke-width="3"/>
<rect width="50" height="50" transform="translate(508.1 29.5441)" fill="#3F51B5"/>
<path d="M531.729 52.4608H528.933C528.358 52.4608 527.892 52.9274 527.892 53.5024C527.892 54.0774 528.358 54.5441 528.933 54.5441H532.058V56.6274H528.933C528.358 56.6274 527.892 57.0941 527.892 57.6691C527.892 58.2441 528.358 58.7108 528.933 58.7108H532.058V63.9191C532.058 64.4941 532.525 64.9608 533.1 64.9608C533.675 64.9608 534.142 64.4941 534.142 63.9191V58.7108H537.267C537.842 58.7108 538.308 58.2441 538.308 57.6691C538.308 57.0941 537.842 56.6274 537.267 56.6274H534.142V54.5441H537.267C537.842 54.5441 538.308 54.0774 538.308 53.5024C538.308 52.9274 537.842 52.4608 537.267 52.4608H534.471L540.139 45.8462C540.514 45.4108 540.464 44.7524 540.027 44.3774C539.594 44.0045 538.935 44.0545 538.558 44.492L533.1 50.8587L527.639 44.492C527.267 44.0545 526.608 44.0087 526.173 44.3774C525.735 44.7524 525.683 45.4108 526.06 45.8462L531.729 52.4608Z" fill="#EEEEEE" fill-opacity="0.2"/>
<path d="M533.1 77.4608C545.735 77.4608 556.017 67.1795 556.017 54.5441C556.017 41.9087 545.735 31.6274 533.1 31.6274C520.465 31.6274 510.183 41.9087 510.183 54.5441C510.183 67.1795 520.465 77.4608 533.1 77.4608ZM533.1 33.7108C544.587 33.7108 553.933 43.0566 553.933 54.5441C553.933 66.0316 544.587 75.3774 533.1 75.3774C521.612 75.3774 512.267 66.0316 512.267 54.5441C512.267 43.0566 521.612 33.7108 533.1 33.7108Z" fill="#EEEEEE" fill-opacity="0.2"/>
<g clip-path="url(#clip0_11_3)">
<rect width="50" height="50" transform="translate(339.1 134.999) rotate(-46.811)" fill="#3F51B5"/>
<path d="M369.694 123.715L364.704 129.031C364.31 129.45 364.331 130.11 364.751 130.503L374.624 139.771L371.059 143.569C370.666 143.988 370.687 144.648 371.106 145.041C371.525 145.435 372.185 145.414 372.578 144.995L376.143 141.197L378.421 143.336C378.84 143.729 379.5 143.709 379.894 143.289C380.287 142.87 380.266 142.211 379.847 141.817L377.569 139.678L381.133 135.881C381.527 135.462 381.506 134.802 381.087 134.408C380.667 134.015 380.008 134.036 379.614 134.455L376.05 138.252L374.531 136.827L378.808 132.27C381.167 129.757 381.041 125.794 378.529 123.435C376.017 121.077 372.053 121.202 369.694 123.715ZM377.289 130.844L373.012 135.401L366.936 129.697L371.213 125.14C372.786 123.465 375.428 123.381 377.103 124.954C378.778 126.527 378.862 129.168 377.289 130.844Z" fill="#EEEEEE" fill-opacity="0.2"/>
<path d="M357.729 118.197C349.081 127.41 349.541 141.942 358.753 150.59C367.966 159.238 382.498 158.778 391.146 149.566C399.794 140.353 399.334 125.821 390.122 117.173C380.909 108.525 366.377 108.985 357.729 118.197ZM389.627 148.14C381.765 156.516 368.555 156.933 360.179 149.071C351.804 141.209 351.386 127.999 359.248 119.623C367.11 111.248 380.321 110.83 388.696 118.692C397.072 126.554 397.489 139.765 389.627 148.14Z" fill="#EEEEEE" fill-opacity="0.2"/>
</g>
<g clip-path="url(#clip1_11_3)">
<rect width="50" height="50" transform="translate(216.1 295.5) rotate(-54.9977)" fill="#3F51B5"/>
<path d="M248.019 277.159C247.548 276.829 246.898 276.944 246.568 277.415L241.191 285.094L238.203 289.36C237.873 289.831 237.988 290.481 238.459 290.811C238.93 291.141 239.58 291.026 239.91 290.555L242.897 286.289C244.215 284.407 246.818 283.948 248.7 285.266L243.323 292.945C242.993 293.416 243.108 294.066 243.579 294.396C244.05 294.726 244.699 294.611 245.029 294.14L250.075 286.935C250.675 288.239 250.604 289.811 249.723 291.069L246.736 295.335C246.482 295.697 246.485 296.18 246.743 296.541C247.001 296.9 247.457 297.059 247.882 296.934L260.683 293.182C260.919 293.11 261.112 292.966 261.244 292.778C261.418 292.529 261.483 292.203 261.39 291.886C261.227 291.334 260.65 291.017 260.097 291.179L250.146 294.097L251.43 292.264C252.986 290.042 252.869 287.162 251.382 285.068L253.394 282.195C253.724 281.724 253.61 281.074 253.139 280.744C252.668 280.414 252.018 280.529 251.688 281L249.895 283.559C248.58 282.638 247.031 282.319 245.55 282.501L248.275 278.61C248.605 278.139 248.49 277.489 248.019 277.159Z" fill="#EEEEEE" fill-opacity="0.2"/>
<path d="M232.147 276.217C224.899 286.567 227.423 300.886 237.773 308.134C248.123 315.382 262.442 312.858 269.69 302.508C276.938 292.158 274.414 277.839 264.064 270.591C253.714 263.343 239.394 265.867 232.147 276.217ZM267.984 301.313C261.394 310.722 248.378 313.017 238.968 306.428C229.558 299.838 227.264 286.822 233.853 277.412C240.443 268.003 253.459 265.708 262.869 272.297C272.278 278.887 274.573 291.903 267.984 301.313Z" fill="#EEEEEE" fill-opacity="0.2"/>
</g>
<g clip-path="url(#clip2_11_3)">
<rect width="50" height="50" transform="translate(67.0999 425.269) rotate(-23.2342)" fill="#3F51B5"/>
<path d="M102.946 442.754L98.1605 444.808C97.6322 445.035 97.3874 445.648 97.6143 446.177C97.8411 446.705 98.454 446.95 98.9824 446.723L101.854 445.49L102.676 447.404C102.903 447.933 103.516 448.177 104.044 447.951C104.572 447.724 104.817 447.111 104.59 446.583L103.768 444.668C105.88 443.762 106.86 441.307 105.953 439.196C105.047 437.084 102.592 436.104 100.481 437.011L98.5665 437.833C97.5117 438.285 96.284 437.797 95.8303 436.74C95.3766 435.683 95.868 434.457 96.9228 434.004L101.709 431.949C102.237 431.722 102.482 431.109 102.255 430.581C102.028 430.053 101.415 429.808 100.887 430.035L98.0153 431.268L97.1935 429.353C96.9666 428.825 96.3537 428.58 95.8254 428.807C95.297 429.034 95.0523 429.647 95.2791 430.175L96.101 432.089C93.9894 432.996 93.0094 435.45 93.9159 437.562C94.8224 439.673 97.2768 440.653 99.3884 439.747L101.303 438.925C102.358 438.472 103.585 438.961 104.039 440.018C104.493 441.074 104.001 442.301 102.946 442.754Z" fill="#EEEEEE" fill-opacity="0.2"/>
<path d="M108.975 459.437C120.586 454.452 125.977 440.949 120.993 429.338C116.008 417.728 102.505 412.336 90.8943 417.321C79.2836 422.305 73.892 435.809 78.8766 447.419C83.8612 459.03 97.3645 464.421 108.975 459.437ZM91.7162 419.235C102.272 414.703 114.547 419.604 119.078 430.16C123.61 440.716 118.709 452.991 108.153 457.523C97.5974 462.054 85.3227 457.153 80.791 446.597C76.2593 436.041 81.1603 423.767 91.7162 419.235Z" fill="#EEEEEE" fill-opacity="0.2"/>
</g>
<defs>
<clipPath id="clip0_11_3">
<rect width="50" height="50" fill="white" transform="translate(339.1 134.999) rotate(-46.811)"/>
</clipPath>
<clipPath id="clip1_11_3">
<rect width="50" height="50" fill="white" transform="translate(216.1 295.5) rotate(-54.9977)"/>
</clipPath>
<clipPath id="clip2_11_3">
<rect width="50" height="50" fill="white" transform="translate(67.0999 425.269) rotate(-23.2342)"/>
</clipPath>
</defs>
</svg>
