<svg width="576" height="496" viewBox="0 0 576 496" fill="none" xmlns="http://www.w3.org/2000/svg">
<path d="M1.30924 76.428C184.199 243.676 575.275 -78.2662 702.841 152.682" stroke="#EEEEEE" stroke-opacity="0.2" stroke-width="3"/>
<g clip-path="url(#clip0_11_17)">
<rect width="50" height="50" transform="translate(472.014 45.9445) rotate(-6.02791)" fill="#3F51B5"/>
<path d="M502.551 57.3843L495.3 58.15C494.728 58.2104 494.313 58.7235 494.373 59.2953L495.795 72.7621L490.616 73.309C490.044 73.3694 489.629 73.8825 489.689 74.4543C489.749 75.0261 490.262 75.4412 490.834 75.3808L496.014 74.8339L496.342 77.9416C496.402 78.5134 496.915 78.9285 497.487 78.8681C498.059 78.8078 498.474 78.2947 498.414 77.7228L498.086 74.6151L503.265 74.0682C503.837 74.0078 504.252 73.4947 504.192 72.9229C504.131 72.3511 503.618 71.936 503.046 71.9964L497.867 72.5433L497.648 70.4715L503.864 69.8152C507.29 69.4533 509.785 66.3702 509.423 62.9434C509.061 59.5166 505.978 57.0224 502.551 57.3843ZM503.645 67.7433L497.429 68.3997L496.554 60.1124L502.77 59.4561C505.055 59.2148 507.11 60.877 507.351 63.1622C507.592 65.4474 505.93 67.502 503.645 67.7433Z" fill="#EEEEEE" fill-opacity="0.2"/>
<path d="M497.095 45.3909C484.529 46.7178 475.384 58.0219 476.711 70.5874C478.038 83.153 489.342 92.2977 501.908 90.9708C514.473 89.644 523.618 78.3399 522.291 65.7743C520.964 53.2088 509.66 44.0641 497.095 45.3909ZM501.689 88.899C490.265 90.1054 479.989 81.7926 478.783 70.3687C477.577 58.9447 485.889 48.6691 497.313 47.4628C508.737 46.2564 519.013 54.5691 520.219 65.9931C521.426 77.4171 513.113 87.6927 501.689 88.899Z" fill="#EEEEEE" fill-opacity="0.2"/>
</g>
<g clip-path="url(#clip1_11_17)">
<rect width="50" height="50" transform="translate(274.041 87.1309) rotate(-14.2146)" fill="#3F51B5"/>
<path d="M310.19 94.0923C310.049 93.5349 309.482 93.1971 308.925 93.3383L299.837 95.6404L294.788 96.9193C294.231 97.0605 293.893 97.6275 294.034 98.1849C294.175 98.7423 294.742 99.0801 295.3 98.9389L300.348 97.66C302.576 97.0957 304.846 98.4483 305.411 100.676L296.323 102.978C295.765 103.119 295.428 103.686 295.569 104.244C295.71 104.801 296.277 105.139 296.834 104.998L305.361 102.838C304.964 104.217 303.883 105.361 302.395 105.738L297.346 107.017C296.918 107.126 296.605 107.493 296.564 107.935C296.525 108.375 296.766 108.793 297.17 108.977L309.314 114.497C309.539 114.597 309.779 114.613 310.001 114.557C310.296 114.482 310.558 114.278 310.695 113.977C310.932 113.453 310.702 112.836 310.178 112.597L300.737 108.307L302.906 107.758C305.536 107.092 307.328 104.835 307.57 102.278L310.971 101.417C311.529 101.275 311.866 100.708 311.725 100.151C311.584 99.5936 311.017 99.2558 310.46 99.397L307.43 100.164C307.036 98.6073 306.071 97.3536 304.832 96.5243L309.436 95.3579C309.994 95.2167 310.332 94.6497 310.19 94.0923Z" fill="#EEEEEE" fill-opacity="0.2"/>
<path d="M298.787 83.0116C286.538 86.1142 279.097 98.6053 282.199 110.854C285.302 123.102 297.793 130.544 310.042 127.442C322.29 124.339 329.732 111.848 326.629 99.5993C323.527 87.3507 311.036 79.9089 298.787 83.0116ZM309.53 125.422C298.394 128.243 287.04 121.478 284.219 110.342C281.398 99.2065 288.163 87.8519 299.299 85.0311C310.434 82.2103 321.789 88.9751 324.61 100.111C327.431 111.247 320.666 122.601 309.53 125.422Z" fill="#EEEEEE" fill-opacity="0.2"/>
</g>
<g clip-path="url(#clip2_11_17)">
<rect width="50" height="50" transform="translate(76.4557 88.0631) rotate(17.5489)" fill="#3F51B5"/>
<path d="M92.177 124.718L87.211 123.147C86.6628 122.974 86.0771 123.278 85.9038 123.826C85.7304 124.375 86.0346 124.96 86.5829 125.134L89.5624 126.076L88.9343 128.062C88.7609 128.61 89.0651 129.196 89.6134 129.369C90.1616 129.543 90.7473 129.239 90.9206 128.69L91.5488 126.704C93.7398 127.397 96.085 126.179 96.7779 123.988C97.4707 121.797 96.2524 119.451 94.0614 118.758L92.0751 118.13C90.9806 117.784 90.3701 116.612 90.7169 115.516C91.0636 114.419 92.2369 113.811 93.3314 114.158L98.2973 115.728C98.8456 115.901 99.4312 115.597 99.6046 115.049C99.778 114.501 99.4737 113.915 98.9255 113.742L95.9459 112.799L96.5741 110.813C96.7475 110.265 96.4432 109.679 95.895 109.506C95.3468 109.332 94.7611 109.637 94.5877 110.185L93.9596 112.171C91.7686 111.478 89.4234 112.697 88.7305 114.888C88.0376 117.079 89.2559 119.424 91.4469 120.117L93.4333 120.745C94.5278 121.091 95.1382 122.263 94.7915 123.359C94.4447 124.456 93.2714 125.064 92.177 124.718Z" fill="#EEEEEE" fill-opacity="0.2"/>
<path d="M85.8444 141.288C97.8918 145.098 110.795 138.395 114.604 126.347C118.414 114.3 111.711 101.397 99.664 97.5875C87.6167 93.7777 74.7139 100.48 70.9041 112.528C67.0943 124.575 73.797 137.478 85.8444 141.288ZM99.0359 99.5739C109.989 103.038 116.082 114.766 112.618 125.719C109.154 136.672 97.4254 142.765 86.4726 139.301C75.5197 135.838 69.4268 124.109 72.8905 113.156C76.3542 102.203 88.083 96.1102 99.0359 99.5739Z" fill="#EEEEEE" fill-opacity="0.2"/>
</g>
<defs>
<clipPath id="clip0_11_17">
<rect width="50" height="50" fill="white" transform="translate(472.014 45.9445) rotate(-6.02791)"/>
</clipPath>
<clipPath id="clip1_11_17">
<rect width="50" height="50" fill="white" transform="translate(274.041 87.1309) rotate(-14.2146)"/>
</clipPath>
<clipPath id="clip2_11_17">
<rect width="50" height="50" fill="white" transform="translate(76.4557 88.0631) rotate(17.5489)"/>
</clipPath>
</defs>
</svg>
